<svg version="1" xmlns="http://www.w3.org/2000/svg" width="294.667" height="294.667" viewBox="0 0 221.000000 221.000000"><path d="M128.5 30C105.4 44.2 83.6 57.7 80 59.9c-3.6 2.3-11.4 7.1-17.5 10.9l-11 6.7-.3 24-.2 24 15.3 9.5c14.8 9.1 15.3 9.5 13.3 11.1-1.2.8-7.9 5.1-14.9 9.4-7.1 4.3-13.1 8.3-13.3 8.9-.2.6-.3 12.6-.2 26.7l.3 25.5L72 203.8c11.3-7 21.4-13.2 22.5-13.8 1.1-.5 18.9-11.4 39.5-24.2l37.5-23.3v-22c0-12.1-.1-23-.3-24.2-.3-1.5-4.6-4.7-15.4-11.4-8.2-5-14.6-9.5-14.1-9.9.4-.4 7.2-4.6 15.1-9.4 7.8-4.9 14.3-9.1 14.3-9.4.4-2.5.3-50.6-.1-51.2-.3-.5-19.4 10.7-42.5 25zm34.5 5.3v16.4l-36.6 22.6-36.6 22.6-2.7-1.8c-4-2.9-13.1-8.5-18.4-11.6-3.9-2.3-4.6-3-3.5-4 .7-.7 20.9-13.3 44.8-28.1 23.9-14.7 45.5-28 47.9-29.6 2.5-1.5 4.6-2.8 4.8-2.8.2 0 .3 7.3.3 16.3zm-15 54.8c5.5 3.4 10 6.5 10 6.9 0 1.1-20 13.3-20.7 12.6-.9-.8-.9-25.6-.1-25.6.4 0 5.3 2.8 10.8 6.1zM72.8 96l13 8-.1 16.4v16.4l-4.6-2.7c-9.2-5.5-18.6-11.5-20.1-12.8-1.2-1.1-1.5-4.4-1.5-17.3 0-8.8.1-16 .2-16 0 0 6 3.6 13.1 8zm90.2 25.4v16.3l-13.7 8.5c-60.7 37.5-87.6 54-88.6 54.4-1 .3-1.3-3.2-1.2-15.7v-16.2l13.5-8.3c7.4-4.6 14.9-9.2 16.5-10.2 1.7-1 5.9-3.7 9.5-5.9 3.6-2.2 9.2-5.7 12.5-7.8 29.7-18.4 51-31.5 51.2-31.5.2 0 .3 7.4.3 16.4z"/></svg>